<svg width="25" height="26" viewBox="0 0 25 26" fill="none" xmlns="http://www.w3.org/2000/svg">
<path fill-rule="evenodd" clip-rule="evenodd" d="M5.36623 5.86625C5.60064 5.63191 5.91852 5.50027 6.24998 5.50027C6.58143 5.50027 6.89932 5.63191 7.13373 5.86625L12.5 11.2325L17.8662 5.86625C17.9815 5.74686 18.1195 5.65163 18.272 5.58612C18.4245 5.52061 18.5885 5.48613 18.7545 5.48469C18.9205 5.48325 19.085 5.51487 19.2387 5.57772C19.3923 5.64057 19.5319 5.73339 19.6492 5.85076C19.7666 5.96812 19.8594 6.10769 19.9223 6.26131C19.9851 6.41493 20.0167 6.57953 20.0153 6.7455C20.0138 6.91148 19.9794 7.0755 19.9139 7.22801C19.8483 7.38051 19.7531 7.51844 19.6337 7.63375L14.2675 13L19.6337 18.3663C19.8614 18.602 19.9874 18.9178 19.9846 19.2455C19.9817 19.5732 19.8503 19.8868 19.6185 20.1185C19.3867 20.3503 19.0732 20.4817 18.7455 20.4846C18.4177 20.4874 18.102 20.3614 17.8662 20.1337L12.5 14.7675L7.13373 20.1337C6.89797 20.3614 6.58222 20.4874 6.25448 20.4846C5.92673 20.4817 5.61321 20.3503 5.38145 20.1185C5.14969 19.8868 5.01823 19.5732 5.01538 19.2455C5.01254 18.9178 5.13853 18.602 5.36623 18.3663L10.7325 13L5.36623 7.63375C5.13189 7.39934 5.00024 7.08146 5.00024 6.75C5.00024 6.41855 5.13189 6.10066 5.36623 5.86625Z" fill="#6B7280"/>
</svg>
