<svg width="17" height="16" viewBox="0 0 17 16" fill="none" xmlns="http://www.w3.org/2000/svg">
<path d="M9.39401 0.552971C9.31087 0.387089 9.18322 0.24761 9.02533 0.150136C8.86745 0.052662 8.68556 0.0010376 8.50001 0.0010376C8.31446 0.0010376 8.13257 0.052662 7.97468 0.150136C7.8168 0.24761 7.68915 0.387089 7.60601 0.552971L0.606007 14.553C0.519151 14.7266 0.484692 14.9217 0.506833 15.1145C0.528974 15.3073 0.606759 15.4896 0.730699 15.639C0.854638 15.7883 1.01937 15.8984 1.20481 15.9558C1.39025 16.0131 1.58837 16.0153 1.77501 15.962L6.77501 14.533C6.98398 14.4732 7.16779 14.347 7.29861 14.1734C7.42943 13.9998 7.50013 13.7883 7.50001 13.571V8.99997C7.50001 8.73475 7.60536 8.4804 7.7929 8.29286C7.98044 8.10533 8.23479 7.99997 8.50001 7.99997C8.76522 7.99997 9.01958 8.10533 9.20711 8.29286C9.39465 8.4804 9.50001 8.73475 9.50001 8.99997V13.571C9.49989 13.7883 9.57059 13.9998 9.7014 14.1734C9.83222 14.347 10.016 14.4732 10.225 14.533L15.225 15.961C15.4116 16.0144 15.6097 16.0124 15.7951 15.9552C15.9806 15.8979 16.1454 15.788 16.2694 15.6387C16.3934 15.4894 16.4714 15.3073 16.4937 15.1145C16.516 14.9217 16.4817 14.7266 16.395 14.553L9.39501 0.552971H9.39401Z" fill="#9CA3AF"/>
</svg>
