<svg width="15" height="18" viewBox="0 0 15 18" fill="none" xmlns="http://www.w3.org/2000/svg">
<path fill-rule="evenodd" clip-rule="evenodd" d="M2.55002 2.54999C3.86284 1.23717 5.64341 0.499634 7.50002 0.499634C9.35663 0.499634 11.1372 1.23717 12.45 2.54999C13.7628 3.86281 14.5004 5.64338 14.5004 7.49999C14.5004 9.3566 13.7628 11.1372 12.45 12.45L7.50002 17.4L2.55002 12.45C1.89993 11.8 1.38425 11.0283 1.03242 10.1789C0.680596 9.32961 0.499512 8.4193 0.499512 7.49999C0.499512 6.58068 0.680596 5.67037 1.03242 4.82104C1.38425 3.97172 1.89993 3.20001 2.55002 2.54999ZM7.50002 9.49999C8.03045 9.49999 8.53916 9.28928 8.91423 8.9142C9.2893 8.53913 9.50002 8.03042 9.50002 7.49999C9.50002 6.96956 9.2893 6.46085 8.91423 6.08578C8.53916 5.7107 8.03045 5.49999 7.50002 5.49999C6.96958 5.49999 6.46088 5.7107 6.0858 6.08578C5.71073 6.46085 5.50002 6.96956 5.50002 7.49999C5.50002 8.03042 5.71073 8.53913 6.0858 8.9142C6.46088 9.28928 6.96958 9.49999 7.50002 9.49999Z" fill="#9CA3AF"/>
</svg>
