<svg width="15" height="17" viewBox="0 0 15 17" fill="none" xmlns="http://www.w3.org/2000/svg">
<path fill-rule="evenodd" clip-rule="evenodd" d="M1.5 2.5C1.5 1.96957 1.71071 1.46086 2.08579 1.08579C2.46086 0.710714 2.96957 0.5 3.5 0.5H11.5C12.0304 0.5 12.5391 0.710714 12.9142 1.08579C13.2893 1.46086 13.5 1.96957 13.5 2.5V14.5C13.7652 14.5 14.0196 14.6054 14.2071 14.7929C14.3946 14.9804 14.5 15.2348 14.5 15.5C14.5 15.7652 14.3946 16.0196 14.2071 16.2071C14.0196 16.3946 13.7652 16.5 13.5 16.5H10.5C10.2348 16.5 9.98043 16.3946 9.79289 16.2071C9.60536 16.0196 9.5 15.7652 9.5 15.5V13.5C9.5 13.2348 9.39464 12.9804 9.20711 12.7929C9.01957 12.6054 8.76522 12.5 8.5 12.5H6.5C6.23478 12.5 5.98043 12.6054 5.79289 12.7929C5.60536 12.9804 5.5 13.2348 5.5 13.5V15.5C5.5 15.7652 5.39464 16.0196 5.20711 16.2071C5.01957 16.3946 4.76522 16.5 4.5 16.5H1.5C1.23478 16.5 0.98043 16.3946 0.792893 16.2071C0.605357 16.0196 0.5 15.7652 0.5 15.5C0.5 15.2348 0.605357 14.9804 0.792893 14.7929C0.98043 14.6054 1.23478 14.5 1.5 14.5V2.5ZM4.5 3.5H6.5V5.5H4.5V3.5ZM6.5 7.5H4.5V9.5H6.5V7.5ZM8.5 3.5H10.5V5.5H8.5V3.5ZM10.5 7.5H8.5V9.5H10.5V7.5Z" fill="#9CA3AF"/>
</svg>
