<svg width="25" height="26" viewBox="0 0 25 26" fill="none" xmlns="http://www.w3.org/2000/svg">
<path d="M14.2448 4.99687C13.801 3.16771 11.199 3.16771 10.7552 4.99687C10.4677 6.17917 9.11354 6.73958 8.07604 6.10625C6.46771 5.12708 4.62812 6.96771 5.60729 8.575C5.75448 8.81641 5.84259 9.08916 5.86445 9.37106C5.8863 9.65295 5.84129 9.93603 5.73307 10.1972C5.62485 10.4584 5.45648 10.6904 5.24167 10.8743C5.02685 11.0581 4.77167 11.1886 4.49687 11.2552C2.66771 11.699 2.66771 14.301 4.49687 14.7448C4.77142 14.8116 5.02634 14.9422 5.24091 15.126C5.45548 15.3098 5.62365 15.5417 5.73174 15.8027C5.83984 16.0638 5.88481 16.3467 5.863 16.6284C5.8412 16.9101 5.75323 17.1826 5.60625 17.424C4.62708 19.0323 6.46771 20.8719 8.075 19.8927C8.31641 19.7455 8.58916 19.6574 8.87106 19.6356C9.15295 19.6137 9.43603 19.6587 9.69724 19.7669C9.95845 19.8752 10.1904 20.0435 10.3743 20.2583C10.5581 20.4731 10.6886 20.7283 10.7552 21.0031C11.199 22.8323 13.801 22.8323 14.2448 21.0031C14.3116 20.7286 14.4422 20.4737 14.626 20.2591C14.8098 20.0445 15.0417 19.8764 15.3027 19.7683C15.5638 19.6602 15.8467 19.6152 16.1284 19.637C16.4101 19.6588 16.6826 19.7468 16.924 19.8937C18.5323 20.8729 20.3719 19.0323 19.3927 17.425C19.2455 17.1836 19.1574 16.9108 19.1356 16.6289C19.1137 16.347 19.1587 16.064 19.2669 15.8028C19.3752 15.5416 19.5435 15.3096 19.7583 15.1257C19.9731 14.9419 20.2283 14.8114 20.5031 14.7448C22.3323 14.301 22.3323 11.699 20.5031 11.2552C20.2286 11.1884 19.9737 11.0578 19.7591 10.874C19.5445 10.6902 19.3764 10.4583 19.2683 10.1973C19.1602 9.93622 19.1152 9.65334 19.137 9.37164C19.1588 9.08993 19.2468 8.81735 19.3937 8.57604C20.3729 6.96771 18.5323 5.12812 16.925 6.10729C16.6836 6.25448 16.4108 6.34259 16.1289 6.36445C15.847 6.3863 15.564 6.34129 15.3028 6.23307C15.0416 6.12485 14.8096 5.95648 14.6257 5.74167C14.4419 5.52685 14.3114 5.27167 14.2448 4.99687Z" stroke="#6B7280" stroke-width="2" stroke-linecap="round" stroke-linejoin="round"/>
<path d="M14.7097 15.2097C15.2958 14.6237 15.625 13.8288 15.625 13C15.625 12.1712 15.2958 11.3763 14.7097 10.7903C14.1237 10.2042 13.3288 9.875 12.5 9.875C11.6712 9.875 10.8763 10.2042 10.2903 10.7903C9.70424 11.3763 9.375 12.1712 9.375 13C9.375 13.8288 9.70424 14.6237 10.2903 15.2097C10.8763 15.7958 11.6712 16.125 12.5 16.125C13.3288 16.125 14.1237 15.7958 14.7097 15.2097Z" stroke="#6B7280" stroke-width="2" stroke-linecap="round" stroke-linejoin="round"/>
</svg>
