<svg width="17" height="17" viewBox="0 0 17 17" fill="none" xmlns="http://www.w3.org/2000/svg">
<path fill-rule="evenodd" clip-rule="evenodd" d="M16.207 7.793C16.3945 7.98053 16.4998 8.23484 16.4998 8.5C16.4998 8.76516 16.3945 9.01947 16.207 9.207L9.207 16.207C9.01947 16.3945 8.76517 16.4998 8.5 16.4998C8.23484 16.4998 7.98053 16.3945 7.793 16.207L0.793001 9.207C0.700002 9.11426 0.626244 9.00406 0.575962 8.88273C0.52568 8.7614 0.499865 8.63134 0.500001 8.5V3.5C0.500001 2.70435 0.816071 1.94129 1.37868 1.37868C1.94129 0.816071 2.70435 0.5 3.5 0.5H8.5C8.756 0.5 9.012 0.598 9.207 0.793L16.207 7.793ZM3.5 4.5C3.76522 4.5 4.01957 4.39464 4.20711 4.20711C4.39464 4.01957 4.5 3.76522 4.5 3.5C4.5 3.23478 4.39464 2.98043 4.20711 2.79289C4.01957 2.60536 3.76522 2.5 3.5 2.5C3.23478 2.5 2.98043 2.60536 2.79289 2.79289C2.60536 2.98043 2.5 3.23478 2.5 3.5C2.5 3.76522 2.60536 4.01957 2.79289 4.20711C2.98043 4.39464 3.23478 4.5 3.5 4.5Z" fill="#9CA3AF"/>
</svg>
