<svg width="19" height="15" viewBox="0 0 19 15" fill="none" xmlns="http://www.w3.org/2000/svg">
<path d="M8.5 3.5C8.5 4.29565 8.18393 5.05871 7.62132 5.62132C7.05871 6.18393 6.29565 6.5 5.5 6.5C4.70435 6.5 3.94129 6.18393 3.37868 5.62132C2.81607 5.05871 2.5 4.29565 2.5 3.5C2.5 2.70435 2.81607 1.94129 3.37868 1.37868C3.94129 0.816071 4.70435 0.5 5.5 0.5C6.29565 0.5 7.05871 0.816071 7.62132 1.37868C8.18393 1.94129 8.5 2.70435 8.5 3.5ZM16.5 3.5C16.5 3.89397 16.4224 4.28407 16.2716 4.64805C16.1209 5.01203 15.8999 5.34274 15.6213 5.62132C15.3427 5.8999 15.012 6.12087 14.6481 6.27164C14.2841 6.4224 13.894 6.5 13.5 6.5C13.106 6.5 12.7159 6.4224 12.3519 6.27164C11.988 6.12087 11.6573 5.8999 11.3787 5.62132C11.1001 5.34274 10.8791 5.01203 10.7284 4.64805C10.5776 4.28407 10.5 3.89397 10.5 3.5C10.5 2.70435 10.8161 1.94129 11.3787 1.37868C11.9413 0.816071 12.7044 0.5 13.5 0.5C14.2956 0.5 15.0587 0.816071 15.6213 1.37868C16.1839 1.94129 16.5 2.70435 16.5 3.5ZM12.43 14.5C12.476 14.173 12.5 13.84 12.5 13.5C12.5023 11.9289 11.9737 10.403 11 9.17C11.7601 8.73116 12.6223 8.50013 13.5 8.50013C14.3776 8.50012 15.2399 8.73114 15.9999 9.16997C16.76 9.6088 17.3912 10.24 17.8301 11C18.2689 11.7601 18.5 12.6223 18.5 13.5V14.5H12.43ZM5.5 8.5C6.82608 8.5 8.09785 9.02678 9.03553 9.96447C9.97322 10.9021 10.5 12.1739 10.5 13.5V14.5H0.5V13.5C0.5 12.1739 1.02678 10.9021 1.96447 9.96447C2.90215 9.02678 4.17392 8.5 5.5 8.5Z" fill="#9CA3AF"/>
</svg>
